<svg width="100%" height="100%" viewBox="0 0 84 48" version="1.1" xmlns="http://www.w3.org/2000/svg" xmlns:xlink="http://www.w3.org/1999/xlink" xml:space="preserve" xmlns:serif="http://www.serif.com/" style="fill-rule:evenodd;clip-rule:evenodd;stroke-linejoin:round;stroke-miterlimit:2;">
    <g id="signal" transform="matrix(1.02439,0,0,1.04348,3.55271e-15,5.88418e-15)">
        <path d="M0,0L12,0L12,6L0,6L0,0ZM28,8L40,8L40,14L28,14L28,8ZM42,0L54,0L54,6L42,6L42,0ZM56,0L68,0L68,6L56,6L56,0ZM56,8L68,8L68,14L56,14L56,8ZM42,8L54,8L54,14L42,14L42,8ZM42,24L54,24L54,30L42,30L42,24ZM56,16L68,16L68,22L56,22L56,16ZM70,16L82,16L82,22L70,22L70,16ZM70,0L82,0L82,6L70,6L70,0ZM28,32L40,32L40,38L28,38L28,32ZM14,16L26,16L26,22L14,22L14,16ZM0,24L12,24L12,30L0,30L0,24ZM0,32L12,32L12,38L0,38L0,32ZM14,32L26,32L26,38L14,38L14,32ZM28,40L40,40L40,46L28,46L28,40ZM14,40L26,40L26,46L14,46L14,40ZM42,40L54,40L54,46L42,46L42,40ZM56,32L68,32L68,38L56,38L56,32ZM56,24L68,24L68,30L56,30L56,24ZM70,32L82,32L82,38L70,38L70,32ZM70,40L82,40L82,46L70,46L70,40ZM14,24L26,24L26,30L14,30L14,24ZM28,16L40,16L40,22L28,22L28,16ZM14,8L26,8L26,14L14,14L14,8ZM0,8L12,8L12,14L0,14L0,8Z" style="fill:rgba(102,102,102,0.06);"/>
    </g>
</svg>
