<svg xmlns="http://www.w3.org/2000/svg" xmlns:xlink="http://www.w3.org/1999/xlink" width="100%" height="100%" fill-rule="evenodd" stroke-linejoin="round" stroke-miterlimit="2" clip-rule="evenodd" version="1.1" viewBox="0 0 24 20" xml:space="preserve"><g><path fill-rule="nonzero" d="M10.241,1.464C9.866,1.63 9.459,1.746 9.034,1.796C9.469,1.536 9.8,1.124 9.959,0.633C9.553,0.874 9.103,1.049 8.622,1.142C8.241,0.736 7.694,0.48 7.09,0.48C5.931,0.48 4.99,1.421 4.99,2.58C4.99,2.746 5.01,2.905 5.044,3.058C3.297,2.97 1.75,2.136 0.713,0.864C0.531,1.174 0.427,1.536 0.427,1.921C0.427,2.649 0.8,3.293 1.362,3.667C1.018,3.658 0.697,3.562 0.413,3.405L0.413,3.43C0.413,4.449 1.138,5.298 2.097,5.493C1.922,5.539 1.734,5.564 1.544,5.564C1.41,5.564 1.278,5.552 1.147,5.527C1.416,6.362 2.19,6.967 3.11,6.986C2.39,7.549 1.484,7.883 0.5,7.883C0.331,7.883 0.166,7.874 0,7.855C0.931,8.452 2.034,8.798 3.222,8.798C7.084,8.798 9.197,5.598 9.197,2.824L9.19,2.552C9.603,2.255 9.959,1.886 10.241,1.464Z" transform="matrix(2.3442,0,0,2.3442,0,-1.12258)"/></g></svg>