<?xml version="1.0" encoding="UTF-8" standalone="no"?>
<!DOCTYPE svg PUBLIC "-//W3C//DTD SVG 1.1//EN" "http://www.w3.org/Graphics/SVG/1.1/DTD/svg11.dtd">
<svg width="100%" height="100%" viewBox="0 0 1024 1024" version="1.1" xmlns="http://www.w3.org/2000/svg" xmlns:xlink="http://www.w3.org/1999/xlink" xml:space="preserve" xmlns:serif="http://www.serif.com/" style="fill-rule:evenodd;clip-rule:evenodd;stroke-linejoin:round;stroke-miterlimit:1.41421;">
    <g transform="matrix(3.63121,0,0,1.66255,-646.355,-513.86)">
        <path d="M374.078,686.812L367.694,667.019C379.294,674.366 385.09,674.343 387.898,670.527C369.524,666.323 388.926,666.71 388.926,666.71C378.82,660.767 370.343,652.539 363.428,642.117C370.95,644.839 378.845,644.33 387.148,640.271C375.822,642.932 366.463,640.242 358.287,634.334C368.012,636.875 375.646,636.657 381.751,634.423C372.649,634.489 365.197,632.983 359.942,629.383C368.962,632.264 375.106,632.192 378.091,628.877C373.699,628.955 369.709,628.399 367.845,624.482C373.77,616.372 369.284,616.094 370.867,615.135C375.975,612.04 379.103,590.093 380.478,568.281C380.728,564.312 382.451,569.5 381.202,558.857C380.885,556.159 374.056,553.263 374.056,553.263C378.017,536.133 380.425,517.705 380.294,497.158C388.143,494.779 395.869,492.344 400.994,485.352C433.489,441.015 409.225,383.239 372.024,417.929C372.024,417.929 363.757,347.18 318.174,356.196C245.233,370.623 265.989,508.616 265.989,508.616C260.427,500.015 252.299,515.089 252.529,552.52C252.656,573.348 266.061,596.247 266.061,596.247C262.724,601.588 260.618,605.86 258.931,609.766C260.187,611.607 263.108,610.136 267.226,606.286C263.316,613.119 260.644,619.757 259.619,626.136C264.535,618.239 268.606,612.42 270.654,611.567C270.654,611.567 264.016,627.542 263.593,627.412C249.352,630.694 242.211,636.807 237.258,643.793C238.083,641.253 232.981,624.612 228.621,623.762C216.295,621.359 188.753,638.105 185.66,647.171C183.688,652.951 181.893,658.078 178,658.542L178,925L448.984,925C449.555,904.416 457.452,889.879 455.02,868.687C442.958,763.557 421.766,698.324 374.078,686.812Z" style="fill:rgb(0,1,0);"/>
    </g>
</svg>
