<?xml version="1.0" encoding="UTF-8" standalone="no"?>
<!DOCTYPE svg PUBLIC "-//W3C//DTD SVG 1.1//EN" "http://www.w3.org/Graphics/SVG/1.1/DTD/svg11.dtd">
<svg width="100%" height="100%" viewBox="0 0 16 16" version="1.1" xmlns="http://www.w3.org/2000/svg" xmlns:xlink="http://www.w3.org/1999/xlink" xml:space="preserve" xmlns:serif="http://www.serif.com/" style="fill-rule:evenodd;clip-rule:evenodd;stroke-linejoin:round;stroke-miterlimit:2;">
    <g transform="matrix(0.0308671,0,0,0.0329213,-0.356738,-0.00757762)">
        <path d="M436.891,174.402C430.743,168.981 405.165,185.448 405.165,185.448L399.512,179.323L396.026,181.906C388.46,177.202 374.628,183.409 361.16,188.982C361.16,188.982 380.39,154.725 378.698,143.311C377.007,131.898 363.527,122.291 351.009,120.5C321.921,116.34 272.454,141.257 231.154,182.113C219.464,179.738 216.181,183.287 218.056,192.321C211.367,188.776 207.246,187.243 203.313,187.592C198.556,188.013 197.776,192.036 192.844,196.321C192.844,196.321 187.723,186.299 182.885,183.289C173.151,177.232 145.913,178.577 137.567,178.539C135.542,178.53 132.954,182.492 132.954,182.492C127.434,181.622 126.809,178.221 121.526,178.082C98.409,177.475 64.253,189.873 54.345,200.521C50.041,205.146 47.385,226.624 47.385,226.624C47.385,226.624 30.378,240.174 30.043,249.823C29.389,268.7 20.337,322.524 43.461,339.886C66.413,357.117 172.038,350.072 172.038,350.072C172.073,354.615 176.389,357.33 183.634,358.793C188.381,362.875 193.748,365.334 199.639,366.418C212.619,366.452 223.945,364.478 233.866,360.801C233.866,360.801 266.877,362.243 305.434,362.691C339.355,363.086 377.704,362.62 399.779,361.006C442.987,357.848 499.627,344.276 513.378,314.373C517.353,305.73 484.35,313.014 484.35,313.014C484.35,313.014 475.858,302.127 470.355,298.107C463.733,293.271 444.622,283.996 444.622,283.996C444.622,283.996 458.378,280.021 458.432,275C458.623,257.213 447.422,249.314 436.791,244.888C426.16,240.462 396.747,251 396.747,251L413.488,226.078C413.488,226.078 437.656,222.096 441.264,213.401C444.873,204.706 443.038,179.822 436.891,174.402Z" style="fill:rgb(92,71,106);"/>
    </g>
</svg>
